<svg xmlns="http://www.w3.org/2000/svg" viewBox="220 90 800 760">
<style>
.m{fill:#fff}.d{fill:#000}
@media(prefers-color-scheme:light){.m{fill:#1a1a2e}.d{fill:#fff}}
</style>
<path class="m" fill-rule="nonzero" d="M 614.082031 97.125 L 621.082031 98.125 L 633.082031 105.125 L 648.082031 115.125 L 682.082031 137.125 L 708.082031 154.125 L 720.082031 162.125 L 755.082031 185.125 L 771.082031 195.125 L 783.082031 203.125 L 786.082031 204.125 L 785.082031 201.125 L 785.082031 166.125 L 786.082031 137.125 L 793.082031 129.125 L 794.082031 128.125 L 902.082031 128.125 L 909.082031 135.125 L 911.082031 140.125 L 911.082031 287.125 L 916.082031 289.125 L 931.082031 299.125 L 977.082031 329.125 L 996.082031 341.125 L 1002.085938 348.125 L 1003.085938 572.125 L 1003.085938 831.125 L 1000.085938 837.125 L 993.082031 843.125 L 980.082031 844.125 L 716.082031 844.125 L 710.082031 842.125 L 705.082031 837.125 L 696.082031 810.125 L 678.082031 748.125 L 670.082031 749.125 L 646.082031 754.125 L 630.082031 755.125 L 629.082031 764.125 L 629.082031 782.125 L 635.082031 807.125 L 636.082031 823.125 L 633.082031 833.125 L 629.082031 839.125 L 625.082031 843.125 L 622.082031 844.125 L 611.082031 844.125 L 603.082031 839.125 L 599.082031 831.125 L 598.082031 827.125 L 598.082031 812.125 L 602.082031 792.125 L 605.082031 778.125 L 605.082031 769.125 L 602.082031 756.125 L 575.082031 752.125 L 560.082031 748.125 L 556.082031 747.125 L 548.082031 772.125 L 533.082031 824.125 L 528.082031 837.125 L 523.082031 842.125 L 521.082031 843.125 L 458.082031 844.125 L 242.082031 844.125 L 237.082031 842.125 L 231.082031 834.125 L 231.082031 349.125 L 234.082031 344.125 L 258.082031 328.125 L 281.082031 313.125 L 318.082031 289.125 L 343.082031 273.125 L 364.082031 259.125 L 386.082031 245.125 L 464.082031 194.125 L 484.082031 181.125 L 513.082031 162.125 L 539.082031 145.125 L 556.082031 134.125 L 585.082031 115.125 L 608.082031 100.125 Z M 615.082031 123.125 L 610.082031 127.125 L 594.082031 137.125 L 579.082031 147.125 L 565.082031 156.125 L 498.082031 200.125 L 476.082031 214.125 L 443.082031 236.125 L 427.082031 246.125 L 396.082031 266.125 L 344.082031 300.125 L 321.082031 315.125 L 299.082031 329.125 L 268.082031 350.125 L 255.082031 359.125 L 254.082031 366.125 L 254.082031 560.125 L 255.082031 818.125 L 256.082031 819.125 L 509.082031 819.125 L 513.082031 809.125 L 528.082031 756.125 L 532.082031 742.125 L 531.082031 738.125 L 512.082031 728.125 L 497.082031 719.125 L 478.082031 705.125 L 474.082031 702.125 L 470.082031 703.125 L 459.082031 712.125 L 451.082031 722.125 L 444.082031 733.125 L 434.082031 747.125 L 427.082031 754.125 L 420.082031 758.125 L 416.082031 759.125 L 409.082031 759.125 L 401.082031 755.125 L 397.082031 748.125 L 397.082031 737.125 L 403.082031 727.125 L 416.082031 716.125 L 439.082031 700.125 L 445.082031 695.125 L 453.082031 684.125 L 452.082031 679.125 L 441.082031 667.125 L 431.082031 652.125 L 419.082031 630.125 L 411.082031 610.125 L 405.082031 589.125 L 401.082031 567.125 L 399.082031 555.125 L 397.082031 553.125 L 388.082031 552.125 L 375.082031 552.125 L 339.082031 558.125 L 324.082031 558.125 L 318.082031 555.125 L 312.082031 548.125 L 310.082031 540.125 L 313.082031 531.125 L 317.082031 526.125 L 325.082031 522.125 L 343.082031 522.125 L 378.082031 529.125 L 388.082031 529.125 L 398.082031 526.125 L 400.082031 520.125 L 404.082031 496.125 L 410.082031 473.125 L 416.082031 458.125 L 424.082031 442.125 L 430.082031 431.125 L 440.082031 416.125 L 451.082031 402.125 L 453.082031 399.125 L 452.082031 395.125 L 445.082031 386.125 L 437.082031 378.125 L 422.082031 368.125 L 408.082031 358.125 L 399.082031 347.125 L 397.082031 342.125 L 397.082031 331.125 L 403.082031 323.125 L 407.082031 321.125 L 417.082031 321.125 L 427.082031 326.125 L 435.082031 334.125 L 445.082031 349.125 L 452.082031 360.125 L 461.082031 370.125 L 471.082031 378.125 L 476.082031 377.125 L 489.082031 367.125 L 508.082031 355.125 L 527.082031 345.125 L 545.082031 338.125 L 566.082031 332.125 L 593.082031 327.125 L 602.082031 325.125 L 605.082031 319.125 L 606.082031 308.125 L 604.082031 294.125 L 600.082031 274.125 L 599.082031 259.125 L 601.082031 248.125 L 608.082031 240.125 L 614.082031 238.125 L 623.082031 239.125 L 629.082031 243.125 L 633.082031 250.125 L 634.082031 254.125 L 634.082031 270.125 L 631.082031 287.125 L 628.082031 302.125 L 628.082031 315.125 L 631.082031 324.125 L 633.082031 326.125 L 663.082031 331.125 L 686.082031 337.125 L 704.082031 344.125 L 727.082031 356.125 L 745.082031 368.125 L 757.082031 377.125 L 761.082031 379.125 L 774.082031 369.125 L 785.082031 355.125 L 793.082031 342.125 L 800.082031 333.125 L 807.082031 326.125 L 817.082031 321.125 L 826.082031 321.125 L 832.082031 325.125 L 836.082031 330.125 L 837.082031 333.125 L 837.082031 340.125 L 831.082031 352.125 L 822.082031 361.125 L 807.082031 371.125 L 793.082031 381.125 L 784.082031 391.125 L 781.082031 396.125 L 782.082031 401.125 L 795.082031 418.125 L 804.082031 432.125 L 813.082031 448.125 L 822.082031 469.125 L 830.082031 498.125 L 835.082031 523.125 L 838.082031 527.125 L 844.082031 529.125 L 857.082031 529.125 L 881.082031 524.125 L 890.082031 522.125 L 904.082031 521.125 L 913.082031 523.125 L 920.082031 529.125 L 923.082031 536.125 L 923.082031 545.125 L 917.082031 554.125 L 909.082031 558.125 L 892.082031 558.125 L 870.082031 554.125 L 861.082031 552.125 L 843.082031 552.125 L 837.082031 555.125 L 835.082031 558.125 L 825.082031 602.125 L 819.082031 620.125 L 813.082031 634.125 L 803.082031 652.125 L 791.082031 669.125 L 781.082031 680.125 L 782.082031 685.125 L 792.082031 698.125 L 802.082031 705.125 L 818.082031 716.125 L 830.082031 727.125 L 836.082031 736.125 L 837.082031 746.125 L 833.082031 754.125 L 828.082031 758.125 L 825.082031 759.125 L 818.082031 759.125 L 809.082031 755.125 L 801.082031 748.125 L 794.082031 740.125 L 782.082031 721.125 L 775.082031 712.125 L 763.082031 702.125 L 758.082031 703.125 L 747.082031 712.125 L 732.082031 722.125 L 714.082031 732.125 L 701.082031 738.125 L 702.082031 746.125 L 721.082031 812.125 L 724.082031 819.125 L 978.082031 819.125 L 979.082031 817.125 L 979.082031 361.125 L 974.082031 356.125 L 960.082031 346.125 L 943.082031 335.125 L 917.082031 318.125 L 895.082031 304.125 L 890.082031 300.125 L 888.082031 296.125 L 887.082031 152.125 L 809.082031 152.125 L 808.082031 228.125 L 805.082031 234.125 L 801.082031 237.125 L 793.082031 237.125 L 783.082031 231.125 L 760.082031 216.125 L 735.082031 200.125 L 725.082031 193.125 L 702.082031 178.125 L 685.082031 167.125 L 665.082031 154.125 L 647.082031 142.125 L 630.082031 131.125 L 618.082031 123.125 Z"/>
<path class="m" fill-rule="nonzero" d="M 597.082031 350.125 L 635.082031 350.125 L 659.082031 354.125 L 681.082031 360.125 L 699.082031 367.125 L 720.082031 378.125 L 734.082031 388.125 L 745.082031 397.125 L 755.082031 406.125 L 762.082031 413.125 L 771.082031 424.125 L 781.082031 438.125 L 793.082031 459.125 L 800.082031 475.125 L 806.082031 495.125 L 811.082031 521.125 L 812.082031 535.125 L 812.082031 548.125 L 810.082031 567.125 L 805.082031 590.125 L 799.082031 608.125 L 791.082031 626.125 L 780.082031 645.125 L 772.082031 656.125 L 761.082031 669.125 L 754.082031 676.125 L 746.082031 683.125 L 733.082031 694.125 L 714.082031 706.125 L 699.082031 714.125 L 678.082031 722.125 L 655.082031 728.125 L 638.082031 731.125 L 611.082031 732.125 L 588.082031 730.125 L 563.082031 724.125 L 542.082031 717.125 L 523.082031 708.125 L 507.082031 698.125 L 494.082031 688.125 L 481.082031 676.125 L 469.082031 665.125 L 458.082031 651.125 L 447.082031 634.125 L 439.082031 619.125 L 431.082031 598.125 L 425.082031 573.125 L 422.082031 548.125 L 423.082031 521.125 L 427.082031 498.125 L 433.082031 477.125 L 440.082031 460.125 L 448.082031 445.125 L 456.082031 433.125 L 465.082031 421.125 L 476.082031 409.125 L 486.082031 399.125 L 497.082031 390.125 L 512.082031 379.125 L 528.082031 370.125 L 549.082031 361.125 L 573.082031 354.125 Z"/>
<path class="d" fill-rule="nonzero" d="M 597.082031 350.125 L 635.082031 350.125 L 659.082031 354.125 L 681.082031 360.125 L 699.082031 367.125 L 720.082031 378.125 L 734.082031 388.125 L 745.082031 397.125 L 755.082031 406.125 L 762.082031 413.125 L 771.082031 424.125 L 781.082031 438.125 L 793.082031 459.125 L 800.082031 475.125 L 806.082031 495.125 L 811.082031 521.125 L 812.082031 535.125 L 812.082031 548.125 L 810.082031 567.125 L 805.082031 590.125 L 799.082031 608.125 L 791.082031 626.125 L 780.082031 645.125 L 772.082031 656.125 L 761.082031 669.125 L 754.082031 676.125 L 746.082031 683.125 L 733.082031 694.125 L 714.082031 706.125 L 699.082031 714.125 L 678.082031 722.125 L 655.082031 728.125 L 638.082031 731.125 L 611.082031 732.125 L 588.082031 730.125 L 563.082031 724.125 L 542.082031 717.125 L 523.082031 708.125 L 507.082031 698.125 L 494.082031 688.125 L 481.082031 676.125 L 469.082031 665.125 L 458.082031 651.125 L 447.082031 634.125 L 439.082031 619.125 L 431.082031 598.125 L 425.082031 573.125 L 422.082031 548.125 L 423.082031 521.125 L 427.082031 498.125 L 433.082031 477.125 L 440.082031 460.125 L 448.082031 445.125 L 456.082031 433.125 L 465.082031 421.125 L 476.082031 409.125 L 486.082031 399.125 L 497.082031 390.125 L 512.082031 379.125 L 528.082031 370.125 L 549.082031 361.125 L 573.082031 354.125 Z M 607.082031 373.125 L 589.082031 375.125 L 565.082031 381.125 L 546.082031 388.125 L 527.082031 398.125 L 513.082031 408.125 L 502.082031 417.125 L 486.082031 433.125 L 474.082031 449.125 L 465.082031 463.125 L 456.082031 482.125 L 450.082031 502.125 L 447.082031 517.125 L 446.082031 525.125 L 446.082031 557.125 L 450.082031 579.125 L 459.082031 606.125 L 470.082031 627.125 L 480.082031 641.125 L 493.082031 656.125 L 504.082031 667.125 L 514.082031 674.125 L 529.082031 684.125 L 546.082031 693.125 L 571.082031 702.125 L 595.082031 707.125 L 607.082031 708.125 L 626.082031 708.125 L 644.082031 706.125 L 661.082031 702.125 L 685.082031 694.125 L 701.082031 686.125 L 713.082031 679.125 L 727.082031 669.125 L 742.082031 655.125 L 754.082031 641.125 L 766.082031 623.125 L 774.082031 607.125 L 780.082031 591.125 L 785.082031 571.125 L 787.082031 558.125 L 788.082031 536.125 L 786.082031 516.125 L 781.082031 494.125 L 775.082031 477.125 L 767.082031 461.125 L 757.082031 445.125 L 749.082031 435.125 L 738.082031 423.125 L 730.082031 415.125 L 713.082031 402.125 L 697.082031 393.125 L 680.082031 385.125 L 662.082031 379.125 L 637.082031 374.125 L 626.082031 373.125 Z"/>
<path class="d" fill-rule="nonzero" d="M 614.082031 500.125 L 626.082031 501.125 L 638.082031 506.125 L 647.082031 514.125 L 654.082031 525.125 L 657.082031 534.125 L 657.082031 548.125 L 653.082031 559.125 L 642.082031 572.125 L 633.082031 578.125 L 625.082031 580.125 L 607.082031 580.125 L 597.082031 576.125 L 589.082031 569.125 L 582.082031 561.125 L 577.082031 550.125 L 576.082031 545.125 L 576.082031 535.125 L 580.082031 524.125 L 586.082031 515.125 L 594.082031 507.125 L 603.082031 502.125 Z"/>
<path class="d" fill-rule="nonzero" d="M 505.082031 448.125 L 509.082031 450.125 L 514.082031 456.125 L 525.082031 465.125 L 563.082031 503.125 L 562.082031 509.125 L 557.082031 520.125 L 553.082031 529.125 L 471.082031 529.125 L 471.082031 519.125 L 477.082031 495.125 L 485.082031 476.125 L 493.082031 463.125 L 502.082031 452.125 Z"/>
<path class="d" fill-rule="nonzero" d="M 726.082031 448.125 L 730.082031 449.125 L 743.082031 467.125 L 752.082031 484.125 L 760.082031 508.125 L 763.082031 524.125 L 763.082031 528.125 L 757.082031 529.125 L 681.082031 529.125 L 678.082031 524.125 L 670.082031 506.125 L 672.082031 502.125 L 714.082031 460.125 L 722.082031 453.125 Z"/>
<path class="d" fill-rule="nonzero" d="M 471.082031 552.125 L 553.082031 552.125 L 557.082031 561.125 L 563.082031 574.125 L 562.082031 578.125 L 538.082031 602.125 L 536.082031 602.125 L 534.082031 606.125 L 521.082031 619.125 L 513.082031 626.125 L 506.082031 633.125 L 503.082031 632.125 L 490.082031 614.125 L 481.082031 597.125 L 474.082031 576.125 L 471.082031 562.125 Z"/>
<path class="d" fill-rule="nonzero" d="M 579.082031 592.125 L 584.082031 594.125 L 597.082031 601.125 L 605.082031 604.125 L 605.082031 683.125 L 602.082031 684.125 L 580.082031 679.125 L 560.082031 673.125 L 549.082031 668.125 L 536.082031 661.125 L 523.082031 652.125 L 525.082031 647.125 L 576.082031 596.125 Z"/>
<path class="d" fill-rule="nonzero" d="M 689.628906 552.125 L 770.628906 552.125 L 771.628906 553.125 L 770.628906 564.125 L 766.628906 581.125 L 760.628906 597.125 L 750.628906 616.125 L 738.628906 633.125 L 734.628906 632.125 L 684.628906 582.125 L 679.628906 578.125 L 679.628906 572.125 L 688.628906 553.125 Z"/>
<path class="d" fill-rule="nonzero" d="M 652.082031 592.125 L 657.082031 595.125 L 669.082031 608.125 L 702.082031 641.125 L 705.082031 643.125 L 705.082031 645.125 L 709.082031 647.125 L 711.082031 651.125 L 707.082031 655.125 L 692.082031 665.125 L 677.082031 672.125 L 655.082031 679.125 L 636.082031 683.125 L 629.082031 683.125 L 629.082031 603.125 L 639.082031 600.125 Z"/>
<path class="d" fill-rule="nonzero" d="M 600.082031 398.125 L 605.082031 399.125 L 605.082031 476.125 L 603.082031 478.125 L 593.082031 482.125 L 581.082031 488.125 L 577.082031 486.125 L 565.082031 473.125 L 554.082031 462.125 L 546.082031 455.125 L 524.082031 433.125 L 525.082031 429.125 L 537.082031 420.125 L 555.082031 410.125 L 572.082031 404.125 L 587.082031 400.125 Z"/>
<path class="d" fill-rule="nonzero" d="M 629.082031 398.125 L 650.082031 401.125 L 670.082031 407.125 L 682.082031 412.125 L 695.082031 419.125 L 707.082031 428.125 L 710.082031 432.125 L 677.082031 465.125 L 669.082031 472.125 L 659.082031 482.125 L 655.082031 487.125 L 649.082031 486.125 L 637.082031 480.125 L 629.082031 477.125 Z"/>
</svg>
