<?xml version="1.0" encoding="UTF-8"?>
<svg xmlns="http://www.w3.org/2000/svg" xmlns:xlink="http://www.w3.org/1999/xlink" width="1190" height="1190" viewBox="0 0 1190 1190">

<path fill-rule="nonzero" fill="#1e2731" fill-opacity="1" d="M 593.527344 210.316406 L 597.527344 211.316406 L 619.527344 225.316406 L 643.527344 241.316406 L 680.527344 265.316406 L 700.527344 278.316406 L 724.527344 294.316406 L 749.527344 310.316406 L 761.527344 318.316406 L 771.527344 324.316406 L 779.527344 324.316406 L 784.527344 320.316406 L 786.527344 315.316406 L 787.527344 239.316406 L 865.527344 239.316406 L 866.527344 383.316406 L 870.527344 389.316406 L 895.527344 405.316406 L 921.527344 422.316406 L 948.527344 440.316406 L 956.527344 446.316406 L 957.527344 448.316406 L 957.527344 904.316406 L 956.527344 906.316406 L 702.527344 906.316406 L 698.527344 896.316406 L 682.527344 840.316406 L 679.527344 829.316406 L 679.527344 825.316406 L 700.527344 815.316406 L 716.527344 805.316406 L 730.527344 795.316406 L 737.527344 789.316406 L 742.527344 790.316406 L 753.527344 799.316406 L 760.527344 808.316406 L 773.527344 828.316406 L 782.527344 838.316406 L 787.527344 842.316406 L 796.527344 846.316406 L 803.527344 846.316406 L 809.527344 843.316406 L 813.527344 838.316406 L 815.527344 833.316406 L 814.527344 823.316406 L 808.527344 814.316406 L 800.527344 806.316406 L 782.527344 793.316406 L 773.527344 787.316406 L 768.527344 783.316406 L 759.527344 770.316406 L 760.527344 766.316406 L 770.527344 755.316406 L 784.527344 734.316406 L 793.527344 717.316406 L 800.527344 699.316406 L 806.527344 677.316406 L 813.527344 645.316406 L 818.527344 640.316406 L 821.527344 639.316406 L 839.527344 639.316406 L 863.527344 644.316406 L 870.527344 645.316406 L 887.527344 645.316406 L 895.527344 641.316406 L 901.527344 632.316406 L 901.527344 623.316406 L 897.527344 615.316406 L 891.527344 610.316406 L 882.527344 608.316406 L 868.527344 609.316406 L 841.527344 615.316406 L 835.527344 616.316406 L 822.527344 616.316406 L 815.527344 613.316406 L 813.527344 610.316406 L 807.527344 581.316406 L 799.527344 553.316406 L 789.527344 531.316406 L 776.527344 509.316406 L 766.527344 496.316406 L 759.527344 487.316406 L 760.527344 481.316406 L 769.527344 470.316406 L 779.527344 462.316406 L 797.527344 450.316406 L 807.527344 441.316406 L 811.527344 436.316406 L 815.527344 427.316406 L 815.527344 420.316406 L 812.527344 414.316406 L 806.527344 409.316406 L 804.527344 408.316406 L 795.527344 408.316406 L 785.527344 413.316406 L 775.527344 423.316406 L 764.527344 440.316406 L 756.527344 451.316406 L 750.527344 458.316406 L 739.527344 466.316406 L 735.527344 464.316406 L 722.527344 454.316406 L 703.527344 442.316406 L 680.527344 430.316406 L 664.527344 424.316406 L 641.527344 418.316406 L 611.527344 413.316406 L 608.527344 409.316406 L 606.527344 402.316406 L 606.527344 389.316406 L 611.527344 365.316406 L 612.527344 357.316406 L 612.527344 341.316406 L 609.527344 333.316406 L 604.527344 328.316406 L 601.527344 326.316406 L 592.527344 325.316406 L 585.527344 328.316406 L 579.527344 335.316406 L 577.527344 346.316406 L 579.527344 367.316406 L 583.527344 385.316406 L 584.527344 400.316406 L 582.527344 408.316406 L 580.527344 412.316406 L 571.527344 414.316406 L 544.527344 419.316406 L 520.527344 426.316406 L 499.527344 435.316406 L 479.527344 446.316406 L 463.527344 457.316406 L 452.527344 465.316406 L 448.527344 464.316406 L 439.527344 457.316406 L 432.527344 450.316406 L 423.527344 436.316406 L 415.527344 424.316406 L 406.527344 414.316406 L 398.527344 409.316406 L 395.527344 408.316406 L 385.527344 408.316406 L 379.527344 412.316406 L 375.527344 418.316406 L 375.527344 429.316406 L 379.527344 437.316406 L 387.527344 446.316406 L 403.527344 457.316406 L 417.527344 467.316406 L 426.527344 476.316406 L 431.527344 483.316406 L 430.527344 488.316406 L 420.527344 500.316406 L 410.527344 515.316406 L 402.527344 529.316406 L 394.527344 545.316406 L 388.527344 560.316406 L 382.527344 583.316406 L 377.527344 612.316406 L 374.527344 614.316406 L 366.527344 616.316406 L 356.527344 616.316406 L 321.527344 609.316406 L 303.527344 609.316406 L 295.527344 613.316406 L 289.527344 622.316406 L 288.527344 628.316406 L 290.527344 635.316406 L 297.527344 643.316406 L 302.527344 645.316406 L 317.527344 645.316406 L 353.527344 639.316406 L 366.527344 639.316406 L 375.527344 640.316406 L 377.527344 642.316406 L 382.527344 671.316406 L 387.527344 691.316406 L 394.527344 710.316406 L 402.527344 727.316406 L 413.527344 745.316406 L 421.527344 756.316406 L 431.527344 767.316406 L 430.527344 772.316406 L 422.527344 783.316406 L 410.527344 792.316406 L 393.527344 804.316406 L 381.527344 814.316406 L 375.527344 824.316406 L 375.527344 835.316406 L 379.527344 842.316406 L 387.527344 846.316406 L 394.527344 846.316406 L 402.527344 843.316406 L 412.527344 834.316406 L 425.527344 816.316406 L 432.527344 805.316406 L 440.527344 796.316406 L 449.527344 789.316406 L 454.527344 790.316406 L 465.527344 799.316406 L 483.527344 811.316406 L 501.527344 821.316406 L 509.527344 825.316406 L 510.527344 829.316406 L 496.527344 878.316406 L 488.527344 905.316406 L 487.527344 906.316406 L 234.527344 906.316406 L 233.527344 905.316406 L 232.527344 631.316406 L 232.527344 448.316406 L 237.527344 443.316406 L 288.527344 409.316406 L 310.527344 395.316406 L 325.527344 385.316406 L 351.527344 368.316406 L 374.527344 353.316406 L 388.527344 344.316406 L 407.527344 332.316406 L 422.527344 322.316406 L 448.527344 305.316406 L 465.527344 294.316406 L 487.527344 280.316406 L 517.527344 260.316406 L 540.527344 245.316406 L 557.527344 234.316406 L 572.527344 224.316406 L 583.527344 217.316406 L 592.527344 211.316406 Z M 593.527344 210.316406 "/>
<path fill-rule="nonzero" fill="#B28264" fill-opacity="1" d="M 592.527344 184.316406 L 599.527344 185.316406 L 611.527344 192.316406 L 626.527344 202.316406 L 660.527344 224.316406 L 686.527344 241.316406 L 698.527344 249.316406 L 733.527344 272.316406 L 749.527344 282.316406 L 761.527344 290.316406 L 764.527344 291.316406 L 763.527344 288.316406 L 763.527344 253.316406 L 764.527344 224.316406 L 771.527344 216.316406 L 772.527344 215.316406 L 880.527344 215.316406 L 887.527344 222.316406 L 889.527344 227.316406 L 889.527344 374.316406 L 894.527344 376.316406 L 909.527344 386.316406 L 955.527344 416.316406 L 974.527344 428.316406 L 980.527344 435.316406 L 981.527344 659.316406 L 981.527344 918.316406 L 978.527344 924.316406 L 971.527344 930.316406 L 958.527344 931.316406 L 694.527344 931.316406 L 688.527344 929.316406 L 683.527344 924.316406 L 674.527344 897.316406 L 656.527344 835.316406 L 648.527344 836.316406 L 624.527344 841.316406 L 608.527344 842.316406 L 607.527344 851.316406 L 607.527344 869.316406 L 613.527344 894.316406 L 614.527344 910.316406 L 611.527344 920.316406 L 607.527344 926.316406 L 603.527344 930.316406 L 600.527344 931.316406 L 589.527344 931.316406 L 581.527344 926.316406 L 577.527344 918.316406 L 576.527344 914.316406 L 576.527344 899.316406 L 580.527344 879.316406 L 583.527344 865.316406 L 583.527344 856.316406 L 580.527344 843.316406 L 553.527344 839.316406 L 538.527344 835.316406 L 534.527344 834.316406 L 526.527344 859.316406 L 511.527344 911.316406 L 506.527344 924.316406 L 501.527344 929.316406 L 499.527344 930.316406 L 436.527344 931.316406 L 220.527344 931.316406 L 215.527344 929.316406 L 209.527344 921.316406 L 209.527344 436.316406 L 212.527344 431.316406 L 236.527344 415.316406 L 259.527344 400.316406 L 296.527344 376.316406 L 321.527344 360.316406 L 342.527344 346.316406 L 364.527344 332.316406 L 442.527344 281.316406 L 462.527344 268.316406 L 491.527344 249.316406 L 517.527344 232.316406 L 534.527344 221.316406 L 563.527344 202.316406 L 586.527344 187.316406 Z M 593.527344 210.316406 L 588.527344 214.316406 L 572.527344 224.316406 L 557.527344 234.316406 L 543.527344 243.316406 L 476.527344 287.316406 L 454.527344 301.316406 L 421.527344 323.316406 L 405.527344 333.316406 L 374.527344 353.316406 L 322.527344 387.316406 L 299.527344 402.316406 L 277.527344 416.316406 L 246.527344 437.316406 L 233.527344 446.316406 L 232.527344 453.316406 L 232.527344 647.316406 L 233.527344 905.316406 L 234.527344 906.316406 L 487.527344 906.316406 L 491.527344 896.316406 L 506.527344 843.316406 L 510.527344 829.316406 L 509.527344 825.316406 L 490.527344 815.316406 L 475.527344 806.316406 L 456.527344 792.316406 L 452.527344 789.316406 L 448.527344 790.316406 L 437.527344 799.316406 L 429.527344 809.316406 L 422.527344 820.316406 L 412.527344 834.316406 L 405.527344 841.316406 L 398.527344 845.316406 L 394.527344 846.316406 L 387.527344 846.316406 L 379.527344 842.316406 L 375.527344 835.316406 L 375.527344 824.316406 L 381.527344 814.316406 L 394.527344 803.316406 L 417.527344 787.316406 L 423.527344 782.316406 L 431.527344 771.316406 L 430.527344 766.316406 L 419.527344 754.316406 L 409.527344 739.316406 L 397.527344 717.316406 L 389.527344 697.316406 L 383.527344 676.316406 L 379.527344 654.316406 L 377.527344 642.316406 L 375.527344 640.316406 L 366.527344 639.316406 L 353.527344 639.316406 L 317.527344 645.316406 L 302.527344 645.316406 L 296.527344 642.316406 L 290.527344 635.316406 L 288.527344 627.316406 L 291.527344 618.316406 L 295.527344 613.316406 L 303.527344 609.316406 L 321.527344 609.316406 L 356.527344 616.316406 L 366.527344 616.316406 L 376.527344 613.316406 L 378.527344 607.316406 L 382.527344 583.316406 L 388.527344 560.316406 L 394.527344 545.316406 L 402.527344 529.316406 L 408.527344 518.316406 L 418.527344 503.316406 L 429.527344 489.316406 L 431.527344 486.316406 L 430.527344 482.316406 L 423.527344 473.316406 L 415.527344 465.316406 L 400.527344 455.316406 L 386.527344 445.316406 L 377.527344 434.316406 L 375.527344 429.316406 L 375.527344 418.316406 L 381.527344 410.316406 L 385.527344 408.316406 L 395.527344 408.316406 L 405.527344 413.316406 L 413.527344 421.316406 L 423.527344 436.316406 L 430.527344 447.316406 L 439.527344 457.316406 L 449.527344 465.316406 L 454.527344 464.316406 L 467.527344 454.316406 L 486.527344 442.316406 L 505.527344 432.316406 L 523.527344 425.316406 L 544.527344 419.316406 L 571.527344 414.316406 L 580.527344 412.316406 L 583.527344 406.316406 L 584.527344 395.316406 L 582.527344 381.316406 L 578.527344 361.316406 L 577.527344 346.316406 L 579.527344 335.316406 L 586.527344 327.316406 L 592.527344 325.316406 L 601.527344 326.316406 L 607.527344 330.316406 L 611.527344 337.316406 L 612.527344 341.316406 L 612.527344 357.316406 L 609.527344 374.316406 L 606.527344 389.316406 L 606.527344 402.316406 L 609.527344 411.316406 L 611.527344 413.316406 L 641.527344 418.316406 L 664.527344 424.316406 L 682.527344 431.316406 L 705.527344 443.316406 L 723.527344 455.316406 L 735.527344 464.316406 L 739.527344 466.316406 L 752.527344 456.316406 L 763.527344 442.316406 L 771.527344 429.316406 L 778.527344 420.316406 L 785.527344 413.316406 L 795.527344 408.316406 L 804.527344 408.316406 L 810.527344 412.316406 L 814.527344 417.316406 L 815.527344 420.316406 L 815.527344 427.316406 L 809.527344 439.316406 L 800.527344 448.316406 L 785.527344 458.316406 L 771.527344 468.316406 L 762.527344 478.316406 L 759.527344 483.316406 L 760.527344 488.316406 L 773.527344 505.316406 L 782.527344 519.316406 L 791.527344 535.316406 L 800.527344 556.316406 L 808.527344 585.316406 L 813.527344 610.316406 L 816.527344 614.316406 L 822.527344 616.316406 L 835.527344 616.316406 L 859.527344 611.316406 L 868.527344 609.316406 L 882.527344 608.316406 L 891.527344 610.316406 L 898.527344 616.316406 L 901.527344 623.316406 L 901.527344 632.316406 L 895.527344 641.316406 L 887.527344 645.316406 L 870.527344 645.316406 L 848.527344 641.316406 L 839.527344 639.316406 L 821.527344 639.316406 L 815.527344 642.316406 L 813.527344 645.316406 L 803.527344 689.316406 L 797.527344 707.316406 L 791.527344 721.316406 L 781.527344 739.316406 L 769.527344 756.316406 L 759.527344 767.316406 L 760.527344 772.316406 L 770.527344 785.316406 L 780.527344 792.316406 L 796.527344 803.316406 L 808.527344 814.316406 L 814.527344 823.316406 L 815.527344 833.316406 L 811.527344 841.316406 L 806.527344 845.316406 L 803.527344 846.316406 L 796.527344 846.316406 L 787.527344 842.316406 L 779.527344 835.316406 L 772.527344 827.316406 L 760.527344 808.316406 L 753.527344 799.316406 L 741.527344 789.316406 L 736.527344 790.316406 L 725.527344 799.316406 L 710.527344 809.316406 L 692.527344 819.316406 L 679.527344 825.316406 L 680.527344 833.316406 L 699.527344 899.316406 L 702.527344 906.316406 L 956.527344 906.316406 L 957.527344 904.316406 L 957.527344 448.316406 L 952.527344 443.316406 L 938.527344 433.316406 L 921.527344 422.316406 L 895.527344 405.316406 L 873.527344 391.316406 L 868.527344 387.316406 L 866.527344 383.316406 L 865.527344 239.316406 L 787.527344 239.316406 L 786.527344 315.316406 L 783.527344 321.316406 L 779.527344 324.316406 L 771.527344 324.316406 L 761.527344 318.316406 L 738.527344 303.316406 L 713.527344 287.316406 L 703.527344 280.316406 L 680.527344 265.316406 L 663.527344 254.316406 L 643.527344 241.316406 L 625.527344 229.316406 L 608.527344 218.316406 L 596.527344 210.316406 Z M 593.527344 210.316406 "/>
<path fill-rule="nonzero" fill="#B28264" fill-opacity="1" d="M 575.527344 437.316406 L 613.527344 437.316406 L 637.527344 441.316406 L 659.527344 447.316406 L 677.527344 454.316406 L 698.527344 465.316406 L 712.527344 475.316406 L 723.527344 484.316406 L 733.527344 493.316406 L 740.527344 500.316406 L 749.527344 511.316406 L 759.527344 525.316406 L 771.527344 546.316406 L 778.527344 562.316406 L 784.527344 582.316406 L 789.527344 608.316406 L 790.527344 622.316406 L 790.527344 635.316406 L 788.527344 654.316406 L 783.527344 677.316406 L 777.527344 695.316406 L 769.527344 713.316406 L 758.527344 732.316406 L 750.527344 743.316406 L 739.527344 756.316406 L 732.527344 763.316406 L 724.527344 770.316406 L 711.527344 781.316406 L 692.527344 793.316406 L 677.527344 801.316406 L 656.527344 809.316406 L 633.527344 815.316406 L 616.527344 818.316406 L 589.527344 819.316406 L 566.527344 817.316406 L 541.527344 811.316406 L 520.527344 804.316406 L 501.527344 795.316406 L 485.527344 785.316406 L 472.527344 775.316406 L 459.527344 763.316406 L 447.527344 752.316406 L 436.527344 738.316406 L 425.527344 721.316406 L 417.527344 706.316406 L 409.527344 685.316406 L 403.527344 660.316406 L 400.527344 635.316406 L 401.527344 608.316406 L 405.527344 585.316406 L 411.527344 564.316406 L 418.527344 547.316406 L 426.527344 532.316406 L 434.527344 520.316406 L 443.527344 508.316406 L 454.527344 496.316406 L 464.527344 486.316406 L 475.527344 477.316406 L 490.527344 466.316406 L 506.527344 457.316406 L 527.527344 448.316406 L 551.527344 441.316406 Z M 575.527344 437.316406 "/>
<path fill-rule="nonzero" fill="#1e2731" fill-opacity="1" d="M 575.527344 437.316406 L 613.527344 437.316406 L 637.527344 441.316406 L 659.527344 447.316406 L 677.527344 454.316406 L 698.527344 465.316406 L 712.527344 475.316406 L 723.527344 484.316406 L 733.527344 493.316406 L 740.527344 500.316406 L 749.527344 511.316406 L 759.527344 525.316406 L 771.527344 546.316406 L 778.527344 562.316406 L 784.527344 582.316406 L 789.527344 608.316406 L 790.527344 622.316406 L 790.527344 635.316406 L 788.527344 654.316406 L 783.527344 677.316406 L 777.527344 695.316406 L 769.527344 713.316406 L 758.527344 732.316406 L 750.527344 743.316406 L 739.527344 756.316406 L 732.527344 763.316406 L 724.527344 770.316406 L 711.527344 781.316406 L 692.527344 793.316406 L 677.527344 801.316406 L 656.527344 809.316406 L 633.527344 815.316406 L 616.527344 818.316406 L 589.527344 819.316406 L 566.527344 817.316406 L 541.527344 811.316406 L 520.527344 804.316406 L 501.527344 795.316406 L 485.527344 785.316406 L 472.527344 775.316406 L 459.527344 763.316406 L 447.527344 752.316406 L 436.527344 738.316406 L 425.527344 721.316406 L 417.527344 706.316406 L 409.527344 685.316406 L 403.527344 660.316406 L 400.527344 635.316406 L 401.527344 608.316406 L 405.527344 585.316406 L 411.527344 564.316406 L 418.527344 547.316406 L 426.527344 532.316406 L 434.527344 520.316406 L 443.527344 508.316406 L 454.527344 496.316406 L 464.527344 486.316406 L 475.527344 477.316406 L 490.527344 466.316406 L 506.527344 457.316406 L 527.527344 448.316406 L 551.527344 441.316406 Z M 585.527344 460.316406 L 567.527344 462.316406 L 543.527344 468.316406 L 524.527344 475.316406 L 505.527344 485.316406 L 491.527344 495.316406 L 480.527344 504.316406 L 464.527344 520.316406 L 452.527344 536.316406 L 443.527344 550.316406 L 434.527344 569.316406 L 428.527344 589.316406 L 425.527344 604.316406 L 424.527344 612.316406 L 424.527344 644.316406 L 428.527344 666.316406 L 437.527344 693.316406 L 448.527344 714.316406 L 458.527344 728.316406 L 471.527344 743.316406 L 482.527344 754.316406 L 492.527344 761.316406 L 507.527344 771.316406 L 524.527344 780.316406 L 549.527344 789.316406 L 573.527344 794.316406 L 585.527344 795.316406 L 604.527344 795.316406 L 622.527344 793.316406 L 639.527344 789.316406 L 663.527344 781.316406 L 679.527344 773.316406 L 691.527344 766.316406 L 705.527344 756.316406 L 720.527344 742.316406 L 732.527344 728.316406 L 744.527344 710.316406 L 752.527344 694.316406 L 758.527344 678.316406 L 763.527344 658.316406 L 765.527344 645.316406 L 766.527344 623.316406 L 764.527344 603.316406 L 759.527344 581.316406 L 753.527344 564.316406 L 745.527344 548.316406 L 735.527344 532.316406 L 727.527344 522.316406 L 716.527344 510.316406 L 708.527344 502.316406 L 691.527344 489.316406 L 675.527344 480.316406 L 658.527344 472.316406 L 640.527344 466.316406 L 615.527344 461.316406 L 604.527344 460.316406 Z M 585.527344 460.316406 "/>
<path fill-rule="nonzero" fill="#1e2731" fill-opacity="1" d="M 592.527344 587.316406 L 604.527344 588.316406 L 616.527344 593.316406 L 625.527344 601.316406 L 632.527344 612.316406 L 635.527344 621.316406 L 635.527344 635.316406 L 631.527344 646.316406 L 620.527344 659.316406 L 611.527344 665.316406 L 603.527344 667.316406 L 585.527344 667.316406 L 575.527344 663.316406 L 567.527344 656.316406 L 560.527344 648.316406 L 555.527344 637.316406 L 554.527344 632.316406 L 554.527344 622.316406 L 558.527344 611.316406 L 564.527344 602.316406 L 572.527344 594.316406 L 581.527344 589.316406 Z M 592.527344 587.316406 "/>
<path fill-rule="nonzero" fill="#1e2731" fill-opacity="1" d="M 483.527344 535.316406 L 487.527344 537.316406 L 492.527344 543.316406 L 503.527344 552.316406 L 541.527344 590.316406 L 540.527344 596.316406 L 535.527344 607.316406 L 531.527344 616.316406 L 449.527344 616.316406 L 449.527344 606.316406 L 455.527344 582.316406 L 463.527344 563.316406 L 471.527344 550.316406 L 480.527344 539.316406 Z M 483.527344 535.316406 "/>
<path fill-rule="nonzero" fill="#1e2731" fill-opacity="1" d="M 704.527344 535.316406 L 708.527344 536.316406 L 721.527344 554.316406 L 730.527344 571.316406 L 738.527344 595.316406 L 741.527344 611.316406 L 741.527344 615.316406 L 735.527344 616.316406 L 659.527344 616.316406 L 656.527344 611.316406 L 648.527344 593.316406 L 650.527344 589.316406 L 692.527344 547.316406 L 700.527344 540.316406 Z M 704.527344 535.316406 "/>
<path fill-rule="nonzero" fill="#1e2731" fill-opacity="1" d="M 449.527344 639.316406 L 531.527344 639.316406 L 535.527344 648.316406 L 541.527344 661.316406 L 540.527344 665.316406 L 516.527344 689.316406 L 514.527344 689.316406 L 512.527344 693.316406 L 499.527344 706.316406 L 491.527344 713.316406 L 484.527344 720.316406 L 481.527344 719.316406 L 468.527344 701.316406 L 459.527344 684.316406 L 452.527344 663.316406 L 449.527344 649.316406 Z M 449.527344 639.316406 "/>
<path fill-rule="nonzero" fill="#1e2731" fill-opacity="1" d="M 557.527344 679.316406 L 562.527344 681.316406 L 575.527344 688.316406 L 583.527344 691.316406 L 583.527344 770.316406 L 580.527344 771.316406 L 558.527344 766.316406 L 538.527344 760.316406 L 527.527344 755.316406 L 514.527344 748.316406 L 501.527344 739.316406 L 503.527344 734.316406 L 554.527344 683.316406 Z M 557.527344 679.316406 "/>
<path fill-rule="nonzero" fill="#1e2731" fill-opacity="1" d="M 659.527344 639.316406 L 740.527344 639.316406 L 741.527344 640.316406 L 740.527344 651.316406 L 736.527344 668.316406 L 730.527344 684.316406 L 720.527344 703.316406 L 708.527344 720.316406 L 704.527344 719.316406 L 654.527344 669.316406 L 649.527344 665.316406 L 649.527344 659.316406 L 658.527344 640.316406 Z M 659.527344 639.316406 "/>
<path fill-rule="nonzero" fill="#1e2731" fill-opacity="1" d="M 630.527344 679.316406 L 635.527344 682.316406 L 647.527344 695.316406 L 680.527344 728.316406 L 683.527344 730.316406 L 683.527344 732.316406 L 687.527344 734.316406 L 689.527344 738.316406 L 685.527344 742.316406 L 670.527344 752.316406 L 655.527344 759.316406 L 633.527344 766.316406 L 614.527344 770.316406 L 607.527344 770.316406 L 607.527344 690.316406 L 617.527344 687.316406 Z M 630.527344 679.316406 "/>
<path fill-rule="nonzero" fill="#1e2731" fill-opacity="1" d="M 578.527344 485.316406 L 583.527344 486.316406 L 583.527344 563.316406 L 581.527344 565.316406 L 571.527344 569.316406 L 559.527344 575.316406 L 555.527344 573.316406 L 543.527344 560.316406 L 532.527344 549.316406 L 524.527344 542.316406 L 502.527344 520.316406 L 503.527344 516.316406 L 515.527344 507.316406 L 533.527344 497.316406 L 550.527344 491.316406 L 565.527344 487.316406 Z M 578.527344 485.316406 "/>
<path fill-rule="nonzero" fill="#1e2731" fill-opacity="1" d="M 607.527344 485.316406 L 628.527344 488.316406 L 648.527344 494.316406 L 660.527344 499.316406 L 673.527344 506.316406 L 685.527344 515.316406 L 688.527344 519.316406 L 655.527344 552.316406 L 647.527344 559.316406 L 637.527344 569.316406 L 633.527344 574.316406 L 627.527344 573.316406 L 615.527344 567.316406 L 607.527344 564.316406 Z M 607.527344 485.316406 "/>
</svg>
