<svg xmlns="http://www.w3.org/2000/svg" viewBox="0 0 3826.3 760">
<style>.m{fill:#ffffff}.d{fill:#000000}</style>
<g transform="translate(-217.14 -88.83) scale(0.9870)">
  <path class="m" fill-rule="nonzero" d="M 614.082031 97.125 L 621.082031 98.125 L 633.082031 105.125 L 648.082031 115.125 L 682.082031 137.125 L 708.082031 154.125 L 720.082031 162.125 L 755.082031 185.125 L 771.082031 195.125 L 783.082031 203.125 L 786.082031 204.125 L 785.082031 201.125 L 785.082031 166.125 L 786.082031 137.125 L 793.082031 129.125 L 794.082031 128.125 L 902.082031 128.125 L 909.082031 135.125 L 911.082031 140.125 L 911.082031 287.125 L 916.082031 289.125 L 931.082031 299.125 L 977.082031 329.125 L 996.082031 341.125 L 1002.085938 348.125 L 1003.085938 572.125 L 1003.085938 831.125 L 1000.085938 837.125 L 993.082031 843.125 L 980.082031 844.125 L 716.082031 844.125 L 710.082031 842.125 L 705.082031 837.125 L 696.082031 810.125 L 678.082031 748.125 L 670.082031 749.125 L 646.082031 754.125 L 630.082031 755.125 L 629.082031 764.125 L 629.082031 782.125 L 635.082031 807.125 L 636.082031 823.125 L 633.082031 833.125 L 629.082031 839.125 L 625.082031 843.125 L 622.082031 844.125 L 611.082031 844.125 L 603.082031 839.125 L 599.082031 831.125 L 598.082031 827.125 L 598.082031 812.125 L 602.082031 792.125 L 605.082031 778.125 L 605.082031 769.125 L 602.082031 756.125 L 575.082031 752.125 L 560.082031 748.125 L 556.082031 747.125 L 548.082031 772.125 L 533.082031 824.125 L 528.082031 837.125 L 523.082031 842.125 L 521.082031 843.125 L 458.082031 844.125 L 242.082031 844.125 L 237.082031 842.125 L 231.082031 834.125 L 231.082031 349.125 L 234.082031 344.125 L 258.082031 328.125 L 281.082031 313.125 L 318.082031 289.125 L 343.082031 273.125 L 364.082031 259.125 L 386.082031 245.125 L 464.082031 194.125 L 484.082031 181.125 L 513.082031 162.125 L 539.082031 145.125 L 556.082031 134.125 L 585.082031 115.125 L 608.082031 100.125 Z M 615.082031 123.125 L 610.082031 127.125 L 594.082031 137.125 L 579.082031 147.125 L 565.082031 156.125 L 498.082031 200.125 L 476.082031 214.125 L 443.082031 236.125 L 427.082031 246.125 L 396.082031 266.125 L 344.082031 300.125 L 321.082031 315.125 L 299.082031 329.125 L 268.082031 350.125 L 255.082031 359.125 L 254.082031 366.125 L 254.082031 560.125 L 255.082031 818.125 L 256.082031 819.125 L 509.082031 819.125 L 513.082031 809.125 L 528.082031 756.125 L 532.082031 742.125 L 531.082031 738.125 L 512.082031 728.125 L 497.082031 719.125 L 478.082031 705.125 L 474.082031 702.125 L 470.082031 703.125 L 459.082031 712.125 L 451.082031 722.125 L 444.082031 733.125 L 434.082031 747.125 L 427.082031 754.125 L 420.082031 758.125 L 416.082031 759.125 L 409.082031 759.125 L 401.082031 755.125 L 397.082031 748.125 L 397.082031 737.125 L 403.082031 727.125 L 416.082031 716.125 L 439.082031 700.125 L 445.082031 695.125 L 453.082031 684.125 L 452.082031 679.125 L 441.082031 667.125 L 431.082031 652.125 L 419.082031 630.125 L 411.082031 610.125 L 405.082031 589.125 L 401.082031 567.125 L 399.082031 555.125 L 397.082031 553.125 L 388.082031 552.125 L 375.082031 552.125 L 339.082031 558.125 L 324.082031 558.125 L 318.082031 555.125 L 312.082031 548.125 L 310.082031 540.125 L 313.082031 531.125 L 317.082031 526.125 L 325.082031 522.125 L 343.082031 522.125 L 378.082031 529.125 L 388.082031 529.125 L 398.082031 526.125 L 400.082031 520.125 L 404.082031 496.125 L 410.082031 473.125 L 416.082031 458.125 L 424.082031 442.125 L 430.082031 431.125 L 440.082031 416.125 L 451.082031 402.125 L 453.082031 399.125 L 452.082031 395.125 L 445.082031 386.125 L 437.082031 378.125 L 422.082031 368.125 L 408.082031 358.125 L 399.082031 347.125 L 397.082031 342.125 L 397.082031 331.125 L 403.082031 323.125 L 407.082031 321.125 L 417.082031 321.125 L 427.082031 326.125 L 435.082031 334.125 L 445.082031 349.125 L 452.082031 360.125 L 461.082031 370.125 L 471.082031 378.125 L 476.082031 377.125 L 489.082031 367.125 L 508.082031 355.125 L 527.082031 345.125 L 545.082031 338.125 L 566.082031 332.125 L 593.082031 327.125 L 602.082031 325.125 L 605.082031 319.125 L 606.082031 308.125 L 604.082031 294.125 L 600.082031 274.125 L 599.082031 259.125 L 601.082031 248.125 L 608.082031 240.125 L 614.082031 238.125 L 623.082031 239.125 L 629.082031 243.125 L 633.082031 250.125 L 634.082031 254.125 L 634.082031 270.125 L 631.082031 287.125 L 628.082031 302.125 L 628.082031 315.125 L 631.082031 324.125 L 633.082031 326.125 L 663.082031 331.125 L 686.082031 337.125 L 704.082031 344.125 L 727.082031 356.125 L 745.082031 368.125 L 757.082031 377.125 L 761.082031 379.125 L 774.082031 369.125 L 785.082031 355.125 L 793.082031 342.125 L 800.082031 333.125 L 807.082031 326.125 L 817.082031 321.125 L 826.082031 321.125 L 832.082031 325.125 L 836.082031 330.125 L 837.082031 333.125 L 837.082031 340.125 L 831.082031 352.125 L 822.082031 361.125 L 807.082031 371.125 L 793.082031 381.125 L 784.082031 391.125 L 781.082031 396.125 L 782.082031 401.125 L 795.082031 418.125 L 804.082031 432.125 L 813.082031 448.125 L 822.082031 469.125 L 830.082031 498.125 L 835.082031 523.125 L 838.082031 527.125 L 844.082031 529.125 L 857.082031 529.125 L 881.082031 524.125 L 890.082031 522.125 L 904.082031 521.125 L 913.082031 523.125 L 920.082031 529.125 L 923.082031 536.125 L 923.082031 545.125 L 917.082031 554.125 L 909.082031 558.125 L 892.082031 558.125 L 870.082031 554.125 L 861.082031 552.125 L 843.082031 552.125 L 837.082031 555.125 L 835.082031 558.125 L 825.082031 602.125 L 819.082031 620.125 L 813.082031 634.125 L 803.082031 652.125 L 791.082031 669.125 L 781.082031 680.125 L 782.082031 685.125 L 792.082031 698.125 L 802.082031 705.125 L 818.082031 716.125 L 830.082031 727.125 L 836.082031 736.125 L 837.082031 746.125 L 833.082031 754.125 L 828.082031 758.125 L 825.082031 759.125 L 818.082031 759.125 L 809.082031 755.125 L 801.082031 748.125 L 794.082031 740.125 L 782.082031 721.125 L 775.082031 712.125 L 763.082031 702.125 L 758.082031 703.125 L 747.082031 712.125 L 732.082031 722.125 L 714.082031 732.125 L 701.082031 738.125 L 702.082031 746.125 L 721.082031 812.125 L 724.082031 819.125 L 978.082031 819.125 L 979.082031 817.125 L 979.082031 361.125 L 974.082031 356.125 L 960.082031 346.125 L 943.082031 335.125 L 917.082031 318.125 L 895.082031 304.125 L 890.082031 300.125 L 888.082031 296.125 L 887.082031 152.125 L 809.082031 152.125 L 808.082031 228.125 L 805.082031 234.125 L 801.082031 237.125 L 793.082031 237.125 L 783.082031 231.125 L 760.082031 216.125 L 735.082031 200.125 L 725.082031 193.125 L 702.082031 178.125 L 685.082031 167.125 L 665.082031 154.125 L 647.082031 142.125 L 630.082031 131.125 L 618.082031 123.125 Z"/>
  <path class="m" fill-rule="nonzero" d="M 597.082031 350.125 L 635.082031 350.125 L 659.082031 354.125 L 681.082031 360.125 L 699.082031 367.125 L 720.082031 378.125 L 734.082031 388.125 L 745.082031 397.125 L 755.082031 406.125 L 762.082031 413.125 L 771.082031 424.125 L 781.082031 438.125 L 793.082031 459.125 L 800.082031 475.125 L 806.082031 495.125 L 811.082031 521.125 L 812.082031 535.125 L 812.082031 548.125 L 810.082031 567.125 L 805.082031 590.125 L 799.082031 608.125 L 791.082031 626.125 L 780.082031 645.125 L 772.082031 656.125 L 761.082031 669.125 L 754.082031 676.125 L 746.082031 683.125 L 733.082031 694.125 L 714.082031 706.125 L 699.082031 714.125 L 678.082031 722.125 L 655.082031 728.125 L 638.082031 731.125 L 611.082031 732.125 L 588.082031 730.125 L 563.082031 724.125 L 542.082031 717.125 L 523.082031 708.125 L 507.082031 698.125 L 494.082031 688.125 L 481.082031 676.125 L 469.082031 665.125 L 458.082031 651.125 L 447.082031 634.125 L 439.082031 619.125 L 431.082031 598.125 L 425.082031 573.125 L 422.082031 548.125 L 423.082031 521.125 L 427.082031 498.125 L 433.082031 477.125 L 440.082031 460.125 L 448.082031 445.125 L 456.082031 433.125 L 465.082031 421.125 L 476.082031 409.125 L 486.082031 399.125 L 497.082031 390.125 L 512.082031 379.125 L 528.082031 370.125 L 549.082031 361.125 L 573.082031 354.125 Z"/>
  <path class="d" fill-rule="nonzero" d="M 597.082031 350.125 L 635.082031 350.125 L 659.082031 354.125 L 681.082031 360.125 L 699.082031 367.125 L 720.082031 378.125 L 734.082031 388.125 L 745.082031 397.125 L 755.082031 406.125 L 762.082031 413.125 L 771.082031 424.125 L 781.082031 438.125 L 793.082031 459.125 L 800.082031 475.125 L 806.082031 495.125 L 811.082031 521.125 L 812.082031 535.125 L 812.082031 548.125 L 810.082031 567.125 L 805.082031 590.125 L 799.082031 608.125 L 791.082031 626.125 L 780.082031 645.125 L 772.082031 656.125 L 761.082031 669.125 L 754.082031 676.125 L 746.082031 683.125 L 733.082031 694.125 L 714.082031 706.125 L 699.082031 714.125 L 678.082031 722.125 L 655.082031 728.125 L 638.082031 731.125 L 611.082031 732.125 L 588.082031 730.125 L 563.082031 724.125 L 542.082031 717.125 L 523.082031 708.125 L 507.082031 698.125 L 494.082031 688.125 L 481.082031 676.125 L 469.082031 665.125 L 458.082031 651.125 L 447.082031 634.125 L 439.082031 619.125 L 431.082031 598.125 L 425.082031 573.125 L 422.082031 548.125 L 423.082031 521.125 L 427.082031 498.125 L 433.082031 477.125 L 440.082031 460.125 L 448.082031 445.125 L 456.082031 433.125 L 465.082031 421.125 L 476.082031 409.125 L 486.082031 399.125 L 497.082031 390.125 L 512.082031 379.125 L 528.082031 370.125 L 549.082031 361.125 L 573.082031 354.125 Z M 607.082031 373.125 L 589.082031 375.125 L 565.082031 381.125 L 546.082031 388.125 L 527.082031 398.125 L 513.082031 408.125 L 502.082031 417.125 L 486.082031 433.125 L 474.082031 449.125 L 465.082031 463.125 L 456.082031 482.125 L 450.082031 502.125 L 447.082031 517.125 L 446.082031 525.125 L 446.082031 557.125 L 450.082031 579.125 L 459.082031 606.125 L 470.082031 627.125 L 480.082031 641.125 L 493.082031 656.125 L 504.082031 667.125 L 514.082031 674.125 L 529.082031 684.125 L 546.082031 693.125 L 571.082031 702.125 L 595.082031 707.125 L 607.082031 708.125 L 626.082031 708.125 L 644.082031 706.125 L 661.082031 702.125 L 685.082031 694.125 L 701.082031 686.125 L 713.082031 679.125 L 727.082031 669.125 L 742.082031 655.125 L 754.082031 641.125 L 766.082031 623.125 L 774.082031 607.125 L 780.082031 591.125 L 785.082031 571.125 L 787.082031 558.125 L 788.082031 536.125 L 786.082031 516.125 L 781.082031 494.125 L 775.082031 477.125 L 767.082031 461.125 L 757.082031 445.125 L 749.082031 435.125 L 738.082031 423.125 L 730.082031 415.125 L 713.082031 402.125 L 697.082031 393.125 L 680.082031 385.125 L 662.082031 379.125 L 637.082031 374.125 L 626.082031 373.125 Z"/>
  <path class="d" fill-rule="nonzero" d="M 614.082031 500.125 L 626.082031 501.125 L 638.082031 506.125 L 647.082031 514.125 L 654.082031 525.125 L 657.082031 534.125 L 657.082031 548.125 L 653.082031 559.125 L 642.082031 572.125 L 633.082031 578.125 L 625.082031 580.125 L 607.082031 580.125 L 597.082031 576.125 L 589.082031 569.125 L 582.082031 561.125 L 577.082031 550.125 L 576.082031 545.125 L 576.082031 535.125 L 580.082031 524.125 L 586.082031 515.125 L 594.082031 507.125 L 603.082031 502.125 Z"/>
  <path class="d" fill-rule="nonzero" d="M 505.082031 448.125 L 509.082031 450.125 L 514.082031 456.125 L 525.082031 465.125 L 563.082031 503.125 L 562.082031 509.125 L 557.082031 520.125 L 553.082031 529.125 L 471.082031 529.125 L 471.082031 519.125 L 477.082031 495.125 L 485.082031 476.125 L 493.082031 463.125 L 502.082031 452.125 Z"/>
  <path class="d" fill-rule="nonzero" d="M 726.082031 448.125 L 730.082031 449.125 L 743.082031 467.125 L 752.082031 484.125 L 760.082031 508.125 L 763.082031 524.125 L 763.082031 528.125 L 757.082031 529.125 L 681.082031 529.125 L 678.082031 524.125 L 670.082031 506.125 L 672.082031 502.125 L 714.082031 460.125 L 722.082031 453.125 Z"/>
  <path class="d" fill-rule="nonzero" d="M 471.082031 552.125 L 553.082031 552.125 L 557.082031 561.125 L 563.082031 574.125 L 562.082031 578.125 L 538.082031 602.125 L 536.082031 602.125 L 534.082031 606.125 L 521.082031 619.125 L 513.082031 626.125 L 506.082031 633.125 L 503.082031 632.125 L 490.082031 614.125 L 481.082031 597.125 L 474.082031 576.125 L 471.082031 562.125 Z"/>
  <path class="d" fill-rule="nonzero" d="M 579.082031 592.125 L 584.082031 594.125 L 597.082031 601.125 L 605.082031 604.125 L 605.082031 683.125 L 602.082031 684.125 L 580.082031 679.125 L 560.082031 673.125 L 549.082031 668.125 L 536.082031 661.125 L 523.082031 652.125 L 525.082031 647.125 L 576.082031 596.125 Z"/>
  <path class="d" fill-rule="nonzero" d="M 689.628906 552.125 L 770.628906 552.125 L 771.628906 553.125 L 770.628906 564.125 L 766.628906 581.125 L 760.628906 597.125 L 750.628906 616.125 L 738.628906 633.125 L 734.628906 632.125 L 684.628906 582.125 L 679.628906 578.125 L 679.628906 572.125 L 688.628906 553.125 Z"/>
  <path class="d" fill-rule="nonzero" d="M 652.082031 592.125 L 657.082031 595.125 L 669.082031 608.125 L 702.082031 641.125 L 705.082031 643.125 L 705.082031 645.125 L 709.082031 647.125 L 711.082031 651.125 L 707.082031 655.125 L 692.082031 665.125 L 677.082031 672.125 L 655.082031 679.125 L 636.082031 683.125 L 629.082031 683.125 L 629.082031 603.125 L 639.082031 600.125 Z"/>
  <path class="d" fill-rule="nonzero" d="M 600.082031 398.125 L 605.082031 399.125 L 605.082031 476.125 L 603.082031 478.125 L 593.082031 482.125 L 581.082031 488.125 L 577.082031 486.125 L 565.082031 473.125 L 554.082031 462.125 L 546.082031 455.125 L 524.082031 433.125 L 525.082031 429.125 L 537.082031 420.125 L 555.082031 410.125 L 572.082031 404.125 L 587.082031 400.125 Z"/>
  <path class="d" fill-rule="nonzero" d="M 629.082031 398.125 L 650.082031 401.125 L 670.082031 407.125 L 682.082031 412.125 L 695.082031 419.125 L 707.082031 428.125 L 710.082031 432.125 L 677.082031 465.125 L 669.082031 472.125 L 659.082031 482.125 L 655.082031 487.125 L 649.082031 486.125 L 637.082031 480.125 L 629.082031 477.125 Z"/>
</g>
<g transform="translate(993.48 173.71) scale(0.4343)" fill="#ffffff">
  <path d="M711.98046875 999.990234375 941.25 300.0 890.1103515625 300.0400390625 717.5107421875 817.83984375 535.9306640625 300.0400390625H467.3603515625L310.810546875 816.3798828125L129.720703125 300.0400390625H15.0009765625L260.2705078125 999.8701171875L306.9501953125 999.990234375L473.9404296875 450.4599609375L666.490234375 999.8701171875Z"/>
  <path d="M1572.91015625 999.990234375V301.990234375H1465.419921875V603.7705078125H1124.4794921875V301.990234375H1016.9990234375V999.990234375H1124.4794921875V647.83984375H1465.419921875V999.990234375Z"/>
  <path d="M2156.7001953125 999.9501953125V955.9599609375H1800.48046875V647.83984375H2062.130859375V603.76953125H1800.48046875V344.0693359375H2137.5205078125V299.9990234375H1693.0009765625V999.94921875Z"/>
  <path d="M2695.7001953125 999.9501953125V955.9599609375H2339.48046875V647.83984375H2601.130859375V603.76953125H2339.48046875V344.0693359375H2676.5205078125V299.9990234375H2232.0009765625V999.94921875Z"/>
  <path d="M3234.7001953125 999.9501953125V955.9599609375H2878.4404296875V300.0H2771.0V999.9501953125Z"/>
  <path d="M3865.91015625 999.990234375V301.990234375H3758.419921875V603.7705078125H3417.4794921875V301.990234375H3309.9990234375V999.990234375H3417.4794921875V647.83984375H3758.419921875V999.990234375Z"/>
  <path d="M4461.7802734375 990.650390625C4505.5302734375 972.330078125 4543.8798828125 946.5302734375 4575.83984375 913.91015625C4607.76953125 881.2900390625 4633.2392578125 842.2998046875 4651.4794921875 798.01953125C4669.7197265625 753.6591796875 4678.9794921875 704.7890625 4678.9794921875 652.798828125C4678.9794921875 600.798828125 4669.7197265625 551.9287109375 4651.4794921875 507.619140625C4633.19921875 463.298828125 4607.76953125 424.298828125 4575.83984375 391.71875C4543.919921875 359.138671875 4505.5703125 333.1884765625 4461.8203125 314.578125C4418.150390625 295.978515625 4369.890625 286.548828125 4318.470703125 286.548828125C4267.041015625 286.548828125 4218.6611328125 295.978515625 4174.630859375 314.5380859375C4130.5908203125 333.1484375 4091.9208984375 359.05859375 4059.6708984375 391.6787109375C4027.4111328125 424.298828125 4001.7412109375 463.298828125 3983.5009765625 507.619140625C3965.2607421875 551.9287109375 3956.0009765625 600.798828125 3956.0009765625 652.798828125C3956.0009765625 704.7890625 3965.2607421875 753.6591796875 3983.5009765625 798.01953125C4001.701171875 842.2998046875 4027.3310546875 881.2900390625 4059.6708984375 913.9501953125C4091.9609375 946.5703125 4130.630859375 972.3701171875 4174.6708984375 990.650390625C4218.7412109375 1008.890625 4267.0810546875 1018.150390625 4318.470703125 1018.150390625C4369.8505859375 1018.150390625 4418.0703125 1008.890625 4461.7802734375 990.650390625ZM4318.470703125 326.810546875C4356.5703125 326.810546875 4390.98046875 335.060546875 4420.7109375 351.310546875C4450.53125 367.5908203125 4476.4814453125 390.380859375 4497.7314453125 419.060546875C4519.1416015625 447.900390625 4535.9912109375 482.5908203125 4547.861328125 522.201171875C4559.7216796875 561.931640625 4566.3818359375 605.9619140625 4567.681640625 653.0419921875C4568.9013671875 700.08203125 4564.1513671875 744.2021484375 4553.541015625 784.2119140625C4542.9814453125 824.021484375 4526.94140625 858.791015625 4505.8515625 887.5908203125C4484.931640625 916.1904296875 4458.451171875 938.810546875 4427.130859375 954.7802734375C4396.9912109375 970.1298828125 4362.0107421875 977.8896484375 4323.140625 977.8896484375L4318.5908203125 977.849609375C4279.1904296875 977.2392578125 4243.400390625 968.5087890625 4212.3603515625 951.9384765625C4181.2900390625 935.318359375 4154.7197265625 912.328125 4133.439453125 883.6884765625C4112.029296875 854.80859375 4095.4892578125 820.318359375 4084.3193359375 781.158203125C4073.0693359375 741.7578125 4067.37890625 698.6181640625 4067.37890625 652.7978515625C4067.37890625 605.107421875 4073.0693359375 560.626953125 4084.3193359375 520.5771484375C4095.5390625 480.7275390625 4112.0693359375 445.9072265625 4133.439453125 417.107421875C4154.6796875 388.4677734375 4181.2099609375 365.8876953125 4212.240234375 349.91796875C4242.0205078125 334.5283203125 4276.220703125 326.7685546875 4313.9609375 326.7685546875Z"/>
  <path d="M5155.7802734375 985.76953125C5188.390625 971.919921875 5216.7509765625 952.5400390625 5240.111328125 928.25C5263.4609375 903.9599609375 5281.9912109375 874.58984375 5295.111328125 841.080078125C5308.2314453125 807.73046875 5315.171875 771.25 5315.8720703125 732.5400390625V300.0H5270.822265625V731.400390625C5270.2119140625 764.8701171875 5264.5615234375 795.6201171875 5254.0810546875 822.7197265625C5243.6005859375 849.7294921875 5228.5703125 873.1298828125 5209.3203125 892.3798828125C5190.0205078125 911.7197265625 5166.580078125 926.91015625 5139.5703125 937.640625C5112.470703125 948.400390625 5081.80078125 953.890625 5048.4912109375 953.890625C5017.2216796875 953.890625 4989.8818359375 948.810546875 4967.2919921875 938.73046875C4944.9921875 928.8203125 4926.3017578125 914.400390625 4911.8017578125 895.9599609375C4897.181640625 877.3896484375 4886.2119140625 854.8095703125 4879.181640625 828.76953125C4872.03125 802.44921875 4868.4208984375 772.9189453125 4868.4208984375 741.1494140625V299.9990234375H4760.0009765625V752.7294921875C4760.0009765625 788.9599609375 4767.19140625 822.919921875 4781.4111328125 853.6298828125C4795.541015625 884.1796875 4815.5712890625 911.2294921875 4840.9609375 934.01953125C4866.2705078125 956.6494140625 4896.8505859375 974.6396484375 4931.91015625 987.3994140625C4966.8505859375 1000.189453125 5006.041015625 1006.6494140625 5048.4912109375 1006.6494140625C5087.2109375 1006.6494140625 5123.3203125 999.6298828125 5155.7802734375 985.76953125Z"/>
  <path d="M5777.951171875 997.23046875C5810.041015625 988.3701171875 5838.6005859375 975.98046875 5862.810546875 960.2607421875C5887.2607421875 944.380859375 5907.4111328125 925.2109375 5922.6416015625 903.3505859375C5938.08203125 881.130859375 5947.3017578125 856.560546875 5949.9814453125 830.2705078125C5952.62109375 801.80078125 5950.0615234375 775.3505859375 5942.421875 751.6708984375C5934.671875 727.791015625 5920.412109375 705.521484375 5900.0625 685.501953125C5879.9521484375 665.681640625 5853.0224609375 647.8818359375 5820.0322265625 632.5322265625C5787.412109375 617.341796875 5746.7119140625 603.4013671875 5699.0615234375 591.181640625C5653.44140625 579.76171875 5616.4814453125 568.431640625 5589.181640625 557.4619140625C5561.921875 546.4921875 5540.6416015625 535.7724609375 5525.931640625 525.65234375C5511.591796875 515.7822265625 5501.6015625 506.15234375 5496.1611328125 496.97265625C5490.55078125 487.5927734375 5486.8505859375 477.8828125 5485.150390625 467.9326171875C5482.220703125 452.4921875 5484.5810546875 436.6123046875 5492.1708984375 420.5625C5499.8505859375 404.322265625 5512.1201171875 389.4521484375 5528.6904296875 376.4521484375C5540.1904296875 367.4326171875 5575.2001953125 340.052734375 5661.650390625 337.3330078125C5710.7607421875 337.5732421875 5746.9111328125 348.873046875 5775.470703125 372.962890625C5796.2705078125 390.5927734375 5802.7705078125 414.72265625 5809.0205078125 438.072265625C5812.1103515625 449.6123046875 5815.3203125 461.5927734375 5820.23046875 472.4423828125C5830.8408203125 495.9228515625 5854.5205078125 511.6826171875 5879.220703125 511.6826171875C5890.390625 511.6826171875 5900.91015625 508.5126953125 5910.4501953125 502.2529296875C5941.16015625 482.2333984375 5941.1201171875 440.923828125 5925.2001953125 410.494140625C5881.330078125 326.6142578125 5781.599609375 301.6240234375 5740.779296875 294.763671875C5726.9697265625 292.443359375 5699.5498046875 288.5029296875 5671.0693359375 288.5029296875C5635.8896484375 288.5029296875 5602.33984375 292.97265625 5571.3896484375 301.79296875C5540.3095703125 310.6025390625 5512.6494140625 323.40234375 5489.208984375 339.9326171875C5465.7685546875 356.462890625 5446.478515625 376.0830078125 5431.9287109375 398.302734375C5417.1083984375 420.8525390625 5408.578125 445.8720703125 5406.578125 472.5224609375C5403.8984375 499.2919921875 5406.7880859375 524.5224609375 5415.1982421875 547.6328125C5423.6484375 570.86328125 5438.71875 592.763671875 5460.0390625 612.7041015625C5481.0390625 632.4140625 5509.55859375 650.5244140625 5544.818359375 666.57421875C5579.6279296875 682.333984375 5623.017578125 697.2041015625 5673.787109375 710.6845703125C5717.0068359375 722.1044921875 5752.4765625 732.8642578125 5779.20703125 742.6142578125C5805.607421875 752.244140625 5826.2470703125 762.404296875 5840.5869140625 772.7939453125C5854.2265625 782.673828125 5863.2861328125 793.353515625 5867.4765625 804.5234375C5871.81640625 816.1435546875 5873.4462890625 830.193359375 5872.2666015625 846.4033203125C5870.4765625 881.783203125 5852.9765625 910.2236328125 5818.7265625 933.2138671875C5782.1669921875 957.7841796875 5741.626953125 968.314453125 5683.1767578125 968.314453125C5621.0263671875 968.314453125 5579.306640625 946.333984375 5564.4365234375 933.3740234375C5528.1162109375 901.6943359375 5526.3759765625 865.134765625 5524.666015625 829.794921875C5524.095703125 817.9248046875 5523.525390625 806.4345703125 5521.7451171875 795.5849609375C5516.625 764.794921875 5489.6552734375 740.625 5460.365234375 740.625C5454.265625 740.625 5448.1357421875 741.64453125 5442.166015625 743.5947265625C5407.31640625 755.0849609375 5396.74609375 795.0146484375 5404.3056640625 828.4951171875C5422.865234375 910.4248046875 5503.5048828125 971.6044921875 5554.8046875 988.8642578125C5561.3447265625 991.0546875 5620.375 1010.474609375 5675.865234375 1010.474609375C5710.6748046875 1010.474609375 5746.9111328125 1005.7607421875 5777.951171875 997.23046875Z"/>
  <path d="M6507.7001953125 999.9501953125V955.9599609375H6151.48046875V647.83984375H6413.130859375V603.76953125H6151.48046875V344.0693359375H6488.5205078125V299.9990234375H6044.0009765625V999.94921875Z"/>
</g></svg>